<svg version="1.1" id="Layer_1"
  xmlns="http://www.w3.org/2000/svg" viewBox="0 0 107.2 117.7" fill="#0FD186">
  <path class="st0" d="M107.2,64.5V21.2C107.2,9.5,97.7,0,85.9,0L21.3,10.6c-11.7,0-21.2,9.5-21.2,21.2v64.6 c0,11.7,9.5,21.2,21.2,21.2h64.6c11.7,0,21.2-9.5,21.2-21.2V71.2c-0.1-1.1-0.1-2.2-0.1-3.3C107.1,66.8,107.1,65.7,107.2,64.5 M82.2,103.8c-7.5,5.2-16.5,7.7-27.1,7.7c-15.2,0-29.3-5.5-42.2-16.5l13.8-13.9c8.5,9.2,18.4,13.8,29.5,13.8c4.3,0,8.2-0.9,11.9-2.7 c4.5-2.2,6.8-5.2,6.8-9.1c0-5.7-4.1-9.3-12.4-10.8L51,70.1c-10.2-1.9-17.8-4.4-22.7-7.4c-7.4-4.5-11-11-11-19.4 c0-9.6,3.9-17.2,11.6-22.9c6.8-5.2,15.2-7.7,25.2-7.7c12.7,0,25.1,4.3,37.2,13L79.8,39.9c-8.3-7-16.7-10.5-25.3-10.5 c-4.1,0-7.9,0.9-11.3,2.7c-4,2.2-6,5.2-6,9.1c0,5,4.1,8.3,12.4,9.9L70,55c16.5,3.1,24.8,11.4,24.8,25C94.8,90.1,90.6,98,82.2,103.8"></path>
</svg>