<svg xmlns="http://www.w3.org/2000/svg" width="98" height="35" viewBox="0 0 98 35" fill="none">
  <g clip-path="url(#clipIconLogoMenu0)">
    <path d="M27.7986 16.5933V5.62178C27.7986 2.62955 25.3215 0.272034 22.3857 0.272034L5.77984 2.99224C2.75226 2.90157 0.275146 5.34975 0.275146 8.34198V24.7539C0.275146 27.7461 2.75226 30.1036 5.68809 30.1036H22.2939C25.3215 30.1036 27.7069 27.6555 27.7069 24.7539V18.3161C27.7069 18.0441 27.7069 17.772 27.7069 17.5C27.7069 17.1373 27.7986 16.8653 27.7986 16.5933ZM21.3765 26.5674C19.4498 27.8368 17.1562 28.5622 14.4039 28.5622C10.4588 28.5622 6.88078 27.2021 3.57796 24.3912L7.15601 20.8549C9.35789 23.2125 11.835 24.3005 14.7708 24.3005C15.8718 24.3005 16.881 24.0285 17.7984 23.5751C18.9911 23.0311 19.5416 22.215 19.5416 21.3083C19.5416 19.8575 18.4406 18.9508 16.3305 18.5881L13.3947 18.0441C10.7341 17.5907 8.80742 16.956 7.61474 16.1399C5.6881 14.9612 4.77065 13.329 4.77065 11.2435C4.77065 8.79535 5.77984 6.89121 7.79823 5.44043C9.54138 4.171 11.7433 3.44561 14.2204 3.44561C17.4314 3.44561 20.6425 4.53369 23.7618 6.70986L20.826 10.3368C18.7159 8.52333 16.514 7.70727 14.3121 7.70727C13.2112 7.70727 12.2937 7.97929 11.3763 8.43266C10.3671 8.9767 9.81661 9.79276 9.81661 10.6995C9.81661 11.9689 10.9176 12.785 13.0277 13.2384L18.2571 14.2358C22.4774 15.0518 24.5875 17.1373 24.5875 20.5829C24.5875 23.0311 23.4866 25.0259 21.3765 26.5674Z" fill="#0FD186"/>
    <path d="M45.3218 9.97411C44.4961 8.79535 43.4869 7.88862 42.2942 7.2539C41.1015 6.61919 39.7254 6.34717 38.2575 6.34717C36.6978 6.34717 35.3216 6.61919 33.9454 7.2539C32.661 7.79795 31.4683 8.70468 30.3674 9.97411C29.7252 10.6995 29.1747 11.5156 28.8077 12.241C28.4407 12.9663 28.1655 13.8731 27.982 14.6891C27.8903 15.3239 27.7985 15.9586 27.7068 16.5933V18.3161C27.8903 20.9456 28.716 23.1218 30.2756 25.0259C31.1931 26.114 32.3858 27.0207 33.6702 27.5648C34.9546 28.1995 36.4226 28.4715 37.9822 28.4715C39.3584 28.4715 40.6428 28.1088 42.019 27.4741C43.3034 26.8394 44.4044 26.0233 45.1383 24.9353H45.2301V27.7461H49.9091V6.98188H45.2301V9.97411H45.3218ZM44.4044 20.5829C43.8539 21.4897 43.2117 22.3057 42.2025 22.8498C41.285 23.3938 40.1841 23.6658 38.9914 23.6658C37.2483 23.6658 35.7803 23.1218 34.5877 21.943C33.395 20.7643 32.7528 19.4042 32.7528 17.6814C32.7528 15.8679 33.3032 14.3264 34.4959 13.1477C35.6886 11.9689 37.1565 11.3342 38.9914 11.3342C39.9089 11.3342 40.6428 11.5156 41.4685 11.7876C42.2025 12.0596 42.8447 12.513 43.3952 13.057C43.9456 13.6011 44.3126 14.2358 44.6796 15.0518C44.9548 15.7772 45.1383 16.5933 45.1383 17.5C45.1383 18.5881 44.9548 19.5855 44.4044 20.5829Z" fill="#0089FF"/>
    <path d="M72.2031 11.8783C71.7444 11.0622 71.1939 10.3368 70.6434 9.70209C69.6342 8.52333 68.4416 7.6166 67.2489 7.16323C65.9644 6.61919 64.5883 6.34717 62.9369 6.34717C60.001 6.34717 57.7074 7.43525 56.1477 9.70209H56.056V6.98188H51.4688V34.728H56.5147V25.57H56.6065C58.1661 27.5648 60.2763 28.4715 62.9369 28.4715C64.4048 28.4715 65.781 28.1995 67.1571 27.5648C68.4416 27.0207 69.6342 26.2047 70.5517 25.1166C71.5609 24.0285 72.2948 22.8498 72.7536 21.5803C73.304 20.2202 73.4875 18.8601 73.4875 17.4093C73.4875 16.4119 73.3958 15.5052 73.1205 14.5985C72.9371 13.6917 72.6618 12.785 72.2031 11.8783ZM67.7076 20.4922C67.1571 21.4897 66.4232 22.215 65.5057 22.7591C64.5883 23.3031 63.4873 23.5751 62.2947 23.5751C61.6524 23.5751 60.9185 23.3938 60.1845 23.1218C59.4506 22.8498 58.8083 22.4871 58.2579 21.943C56.9734 20.7643 56.3312 19.2228 56.3312 17.3187C56.3312 16.2306 56.6065 15.1425 57.1569 14.2358C57.7074 13.2384 58.4414 12.513 59.3588 11.9689C60.2763 11.4249 61.3772 11.1529 62.4781 11.1529C63.5791 11.1529 64.5883 11.4249 65.5975 11.9689C66.5149 12.513 67.2489 13.329 67.7993 14.2358C68.3498 15.2332 68.625 16.2306 68.625 17.228C68.4416 18.4974 68.1663 19.5855 67.7076 20.4922Z" fill="#0089FF"/>
    <path d="M96.332 13.1477C95.7815 11.7876 94.9558 10.6088 93.9466 9.61139C92.9374 8.61398 91.7447 7.79792 90.3686 7.16321C88.9924 6.61916 87.6162 6.25647 86.0565 6.25647C84.4969 6.25647 83.029 6.52849 81.6528 7.07253C80.2766 7.61657 79.0839 8.43264 78.0747 9.43005C77.0655 10.4275 76.2398 11.6062 75.5976 12.9663C75.0472 14.3264 74.6802 15.7772 74.6802 17.3187C74.6802 19.3135 75.1389 21.1269 76.1481 22.8497C77.1573 24.5725 78.5335 25.9326 80.1849 26.9301C81.928 27.9275 83.7629 28.3808 85.7813 28.3808C87.2492 28.3808 88.7171 28.1088 90.0933 27.5648C91.4695 27.0207 92.6622 26.2047 93.7631 25.2073C94.8641 24.2098 95.598 22.9404 96.2402 21.671C96.7907 20.3109 97.0659 18.9508 97.0659 17.4093C97.1577 15.9585 96.8824 14.5078 96.332 13.1477ZM91.286 20.5829C90.7355 21.5803 90.0016 22.3057 89.0841 22.8497C88.1667 23.3938 87.0657 23.6658 85.9648 23.6658C84.8639 23.6658 83.8547 23.3938 82.9372 22.8497C82.0198 22.3057 81.2858 21.5803 80.7353 20.5829C80.1849 19.5855 79.9096 18.5881 79.9096 17.5C79.9096 15.7772 80.4601 14.3264 81.6528 13.1477C82.2033 12.6036 82.8455 12.0596 83.6712 11.7876C84.4969 11.4249 85.2308 11.2435 85.9648 11.2435C87.0657 11.2435 88.1667 11.5155 89.0841 12.0596C90.0016 12.6036 90.7355 13.4197 91.286 14.3264C91.8365 15.3238 92.1117 16.3212 92.1117 17.4093C92.1117 18.5881 91.8365 19.5855 91.286 20.5829Z" fill="#0089FF"/>
  </g>
</svg>